<svg xmlns="http://www.w3.org/2000/svg" viewBox="0 0 400 300">
  <defs>
    <linearGradient id="bg3d" x1="0%" y1="0%" x2="100%" y2="100%">
      <stop offset="0%" style="stop-color:#0a0a0a"/>
      <stop offset="100%" style="stop-color:#000000"/>
    </linearGradient>
    <radialGradient id="glow" cx="50%" cy="50%" r="50%">
      <stop offset="0%" style="stop-color:rgba(96,165,250,0.2)"/>
      <stop offset="100%" style="stop-color:rgba(0,0,0,0)"/>
    </radialGradient>
  </defs>

  <rect width="400" height="300" fill="url(#bg3d)"/>
  <ellipse cx="200" cy="150" rx="150" ry="100" fill="url(#glow)"/>

  <!-- 3D cube wireframe hint -->
  <g stroke="rgba(255,255,255,0.08)" stroke-width="1" fill="none">
    <path d="M 80,100 L 320,100 L 350,70 L 110,70 Z"/>
    <path d="M 80,100 L 80,200 L 110,170 L 110,70"/>
    <path d="M 320,100 L 320,200 L 350,170 L 350,70"/>
    <path d="M 80,200 L 320,200 L 350,170 L 110,170 Z"/>
  </g>

  <!-- Edges (3D perspective) -->
  <g stroke="rgba(255,255,255,0.12)" stroke-width="1" fill="none">
    <line x1="90" y1="130" x2="200" y2="90"/>
    <line x1="130" y1="155" x2="200" y2="90"/>
    <line x1="150" y1="170" x2="200" y2="90"/>
    <line x1="160" y1="145" x2="200" y2="90"/>
    <line x1="260" y1="140" x2="200" y2="90"/>
    <line x1="280" y1="160" x2="200" y2="90"/>
    <line x1="290" y1="145" x2="200" y2="90"/>
    <line x1="210" y1="195" x2="200" y2="90"/>
    <line x1="225" y1="215" x2="200" y2="90"/>
  </g>

  <!-- Back nodes (dimmer) -->
  <circle cx="90" cy="130" r="6" fill="#ef4444" opacity="0.6"/>
  <rect x="123" y="148" width="14" height="14" rx="2" fill="#8b5cf6" opacity="0.5"/>

  <!-- Middle nodes -->
  <rect x="143" y="163" width="14" height="14" rx="2" fill="#8b5cf6" opacity="0.7"/>
  <rect x="153" y="138" width="14" height="14" rx="2" fill="#8b5cf6" opacity="0.8"/>

  <!-- Main theorem (front, bright) - hexagon -->
  <polygon points="200,75 215,82 215,98 200,105 185,98 185,82" fill="#f59e0b" stroke="rgba(255,255,255,0.4)" stroke-width="1.5"/>

  <!-- Front nodes (brighter) -->
  <rect x="253" y="133" width="14" height="14" rx="2" fill="#f59e0b" opacity="0.9"/>
  <rect x="273" y="153" width="14" height="14" rx="2" fill="#f59e0b"/>
  <rect x="283" y="138" width="14" height="14" rx="2" fill="#f59e0b"/>

  <!-- Bottom nodes -->
  <polygon points="210,183 219,188 219,198 210,203 201,198 201,188" fill="#f59e0b" opacity="0.8"/>
  <polygon points="225,203 234,208 234,218 225,223 216,218 216,208" fill="#f59e0b" opacity="0.7"/>

  <!-- Title -->
  <text x="200" y="285" fill="#fafafa" font-family="Inter, sans-serif" font-size="11" text-anchor="middle">3D Proof Dependency Map</text>

  <!-- Rotation hint -->
  <g transform="translate(340, 250)">
    <circle cx="0" cy="0" r="20" fill="none" stroke="rgba(255,255,255,0.2)" stroke-width="1" stroke-dasharray="3,3"/>
    <path d="M -8,-12 A 15,15 0 1 1 12,-5" fill="none" stroke="rgba(255,255,255,0.4)" stroke-width="1.5"/>
    <polygon points="12,-5 8,-12 16,-8" fill="rgba(255,255,255,0.4)"/>
  </g>
</svg>
