<?xml version="1.0" encoding="UTF-8"?>
<svg xmlns="http://www.w3.org/2000/svg" viewBox="0 0 1200 500" width="1200" height="500">
  <defs>
    <!-- Glow filters -->
    <filter id="glow-blue" x="-50%" y="-50%" width="200%" height="200%">
      <feGaussianBlur stdDeviation="4" result="blur"/>
      <feMerge>
        <feMergeNode in="blur"/>
        <feMergeNode in="SourceGraphic"/>
      </feMerge>
    </filter>
    <filter id="glow-amber" x="-50%" y="-50%" width="200%" height="200%">
      <feGaussianBlur stdDeviation="3" result="blur"/>
      <feColorMatrix in="blur" type="matrix" values="1 0.5 0 0 0  0.5 0.3 0 0 0  0 0 0 0 0  0 0 0 1 0"/>
      <feMerge>
        <feMergeNode/>
        <feMergeNode in="SourceGraphic"/>
      </feMerge>
    </filter>
    <filter id="glow-green" x="-50%" y="-50%" width="200%" height="200%">
      <feGaussianBlur stdDeviation="3" result="blur"/>
      <feMerge>
        <feMergeNode in="blur"/>
        <feMergeNode in="SourceGraphic"/>
      </feMerge>
    </filter>
    <filter id="bridge-glow" x="-100%" y="-100%" width="300%" height="300%">
      <feGaussianBlur stdDeviation="8" result="blur"/>
      <feMerge>
        <feMergeNode in="blur"/>
        <feMergeNode in="blur"/>
        <feMergeNode in="SourceGraphic"/>
      </feMerge>
    </filter>

    <!-- Gradients -->
    <linearGradient id="wolfram-grad" x1="0%" y1="0%" x2="100%" y2="100%">
      <stop offset="0%" style="stop-color:#ff6b35"/>
      <stop offset="50%" style="stop-color:#f7c244"/>
      <stop offset="100%" style="stop-color:#e8505b"/>
    </linearGradient>
    <linearGradient id="lean-grad" x1="0%" y1="0%" x2="100%" y2="100%">
      <stop offset="0%" style="stop-color:#3b82f6"/>
      <stop offset="50%" style="stop-color:#8b5cf6"/>
      <stop offset="100%" style="stop-color:#06b6d4"/>
    </linearGradient>
    <linearGradient id="bridge-grad" x1="0%" y1="0%" x2="100%" y2="0%">
      <stop offset="0%" style="stop-color:#f59e0b"/>
      <stop offset="50%" style="stop-color:#10b981"/>
      <stop offset="100%" style="stop-color:#3b82f6"/>
    </linearGradient>

    <!-- Animated dash for bridge -->
    <style>
      @keyframes dash-flow {
        0% { stroke-dashoffset: 40; }
        100% { stroke-dashoffset: 0; }
      }
      .bridge-line {
        animation: dash-flow 2s linear infinite;
      }
      @keyframes pulse {
        0%, 100% { opacity: 0.6; }
        50% { opacity: 1; }
      }
      .pulse-node {
        animation: pulse 2s ease-in-out infinite;
      }
    </style>
  </defs>

  <!-- Background -->
  <rect width="1200" height="500" fill="#000000"/>

  <!-- Grid pattern -->
  <g opacity="0.1">
    <line x1="0" y1="250" x2="1200" y2="250" stroke="#fff" stroke-width="1"/>
    <line x1="600" y1="0" x2="600" y2="500" stroke="#fff" stroke-width="1"/>
  </g>

  <!-- Title Labels -->
  <text x="200" y="40" fill="#f59e0b" font-family="monospace" font-size="18" font-weight="bold" text-anchor="middle">WOLFRAM PHYSICS</text>
  <text x="200" y="58" fill="#9ca3af" font-family="monospace" font-size="12" text-anchor="middle">Hypergraph Rewriting</text>

  <text x="1000" y="40" fill="#60a5fa" font-family="monospace" font-size="18" font-weight="bold" text-anchor="middle">LEAN 4 PROOFS</text>
  <text x="1000" y="58" fill="#9ca3af" font-family="monospace" font-size="12" text-anchor="middle">Formal Verification</text>

  <!-- Center Bridge Label -->
  <text x="600" y="480" fill="#10b981" font-family="monospace" font-size="14" font-weight="bold" text-anchor="middle" filter="url(#glow-green)">BIDIRECTIONAL WITNESS BRIDGE</text>

  <!-- ===== WOLFRAM SIDE (Left) ===== -->
  <!-- Hyperedges (Wolfram Physics style - colored multi-vertex connections) -->
  <g id="wolfram-hypergraph">
    <!-- Hyperedge 1: Red-Orange (3 vertices) -->
    <path d="M 80,150 Q 150,100 180,180 Q 120,200 80,150" fill="none" stroke="#e8505b" stroke-width="3" filter="url(#glow-amber)"/>
    <circle cx="80" cy="150" r="12" fill="#e8505b" filter="url(#glow-amber)"/>
    <circle cx="180" cy="180" r="12" fill="#e8505b" filter="url(#glow-amber)"/>
    <circle cx="150" cy="100" r="10" fill="#ff6b35" filter="url(#glow-amber)"/>

    <!-- Hyperedge 2: Yellow-Gold (4 vertices) -->
    <path d="M 100,280 Q 180,250 250,300 Q 200,350 100,280" fill="none" stroke="#f7c244" stroke-width="3" filter="url(#glow-amber)"/>
    <path d="M 180,250 Q 220,220 280,260" fill="none" stroke="#f7c244" stroke-width="2" filter="url(#glow-amber)"/>
    <circle cx="100" cy="280" r="12" fill="#f7c244" filter="url(#glow-amber)"/>
    <circle cx="250" cy="300" r="12" fill="#f7c244" filter="url(#glow-amber)"/>
    <circle cx="200" cy="350" r="10" fill="#ff9f1c" filter="url(#glow-amber)"/>
    <circle cx="280" cy="260" r="10" fill="#f7c244" filter="url(#glow-amber)"/>

    <!-- Hyperedge 3: Orange-Pink (5 vertices - complex) -->
    <path d="M 220,150 Q 300,120 350,180 Q 320,220 260,200 Q 220,150 220,150" fill="none" stroke="#ff6b35" stroke-width="3" filter="url(#glow-amber)"/>
    <circle cx="220" cy="150" r="11" fill="#ff6b35" filter="url(#glow-amber)"/>
    <circle cx="350" cy="180" r="14" fill="#e8505b" filter="url(#glow-amber)" class="pulse-node"/>
    <circle cx="260" cy="200" r="10" fill="#ff9f1c" filter="url(#glow-amber)"/>
    <circle cx="300" cy="120" r="9" fill="#f7c244" filter="url(#glow-amber)"/>
    <circle cx="320" cy="220" r="11" fill="#ff6b35" filter="url(#glow-amber)"/>

    <!-- Connection lines between hyperedges -->
    <line x1="180" y1="180" x2="220" y2="150" stroke="#ff6b35" stroke-width="2" opacity="0.6"/>
    <line x1="250" y1="300" x2="260" y2="200" stroke="#f7c244" stroke-width="2" opacity="0.6"/>
  </g>

  <!-- ===== LEAN SIDE (Right) ===== -->
  <g id="lean-proof-dag">
    <!-- Root node (theorem) -->
    <rect x="940" y="90" width="120" height="40" rx="6" fill="#1e40af" stroke="#3b82f6" stroke-width="2" filter="url(#glow-blue)"/>
    <text x="1000" y="115" fill="#fff" font-family="monospace" font-size="11" text-anchor="middle">theorem</text>

    <!-- Level 1: app nodes -->
    <rect x="860" y="170" width="80" height="35" rx="6" fill="#4c1d95" stroke="#8b5cf6" stroke-width="2" filter="url(#glow-blue)"/>
    <text x="900" y="193" fill="#fff" font-family="monospace" font-size="10" text-anchor="middle">app</text>

    <rect x="1020" y="170" width="80" height="35" rx="6" fill="#4c1d95" stroke="#8b5cf6" stroke-width="2" filter="url(#glow-blue)"/>
    <text x="1060" y="193" fill="#fff" font-family="monospace" font-size="10" text-anchor="middle">app</text>

    <!-- Level 2: lam, const nodes -->
    <polygon points="820,280 850,250 880,280 850,310" fill="#155e75" stroke="#06b6d4" stroke-width="2" filter="url(#glow-blue)"/>
    <text x="850" y="285" fill="#fff" font-family="monospace" font-size="9" text-anchor="middle">λ</text>

    <rect x="910" y="260" width="70" height="30" rx="4" fill="#065f46" stroke="#10b981" stroke-width="2" filter="url(#glow-blue)"/>
    <text x="945" y="280" fill="#fff" font-family="monospace" font-size="9" text-anchor="middle">const</text>

    <rect x="1010" y="260" width="70" height="30" rx="4" fill="#065f46" stroke="#10b981" stroke-width="2" filter="url(#glow-blue)"/>
    <text x="1045" y="280" fill="#fff" font-family="monospace" font-size="9" text-anchor="middle">const</text>

    <polygon points="1100,280 1130,250 1160,280 1130,310" fill="#155e75" stroke="#06b6d4" stroke-width="2" filter="url(#glow-blue)"/>
    <text x="1130" y="285" fill="#fff" font-family="monospace" font-size="9" text-anchor="middle">λ</text>

    <!-- Level 3: leaf nodes -->
    <ellipse cx="830" cy="370" rx="30" ry="18" fill="#166534" stroke="#22c55e" stroke-width="2" filter="url(#glow-green)"/>
    <text x="830" y="375" fill="#fff" font-family="monospace" font-size="9" text-anchor="middle">var</text>

    <ellipse cx="900" cy="370" rx="30" ry="18" fill="#166534" stroke="#22c55e" stroke-width="2" filter="url(#glow-green)"/>
    <text x="900" y="375" fill="#fff" font-family="monospace" font-size="9" text-anchor="middle">var</text>

    <rect x="960" y="355" width="60" height="28" rx="4" fill="#78350f" stroke="#f59e0b" stroke-width="2" filter="url(#glow-amber)"/>
    <text x="990" y="374" fill="#fff" font-family="monospace" font-size="9" text-anchor="middle">rfl</text>

    <ellipse cx="1080" cy="370" rx="30" ry="18" fill="#166534" stroke="#22c55e" stroke-width="2" filter="url(#glow-green)"/>
    <text x="1080" y="375" fill="#fff" font-family="monospace" font-size="9" text-anchor="middle">var</text>

    <ellipse cx="1150" cy="370" rx="30" ry="18" fill="#166534" stroke="#22c55e" stroke-width="2" filter="url(#glow-green)"/>
    <text x="1150" y="375" fill="#fff" font-family="monospace" font-size="9" text-anchor="middle">var</text>

    <!-- DAG edges -->
    <line x1="1000" y1="130" x2="900" y2="170" stroke="#8b5cf6" stroke-width="2" opacity="0.7"/>
    <line x1="1000" y1="130" x2="1060" y2="170" stroke="#8b5cf6" stroke-width="2" opacity="0.7"/>
    <line x1="900" y1="205" x2="850" y2="250" stroke="#06b6d4" stroke-width="2" opacity="0.7"/>
    <line x1="900" y1="205" x2="945" y2="260" stroke="#10b981" stroke-width="2" opacity="0.7"/>
    <line x1="1060" y1="205" x2="1045" y2="260" stroke="#10b981" stroke-width="2" opacity="0.7"/>
    <line x1="1060" y1="205" x2="1130" y2="250" stroke="#06b6d4" stroke-width="2" opacity="0.7"/>
    <line x1="850" y1="310" x2="830" y2="352" stroke="#22c55e" stroke-width="2" opacity="0.7"/>
    <line x1="850" y1="310" x2="900" y2="352" stroke="#22c55e" stroke-width="2" opacity="0.7"/>
    <line x1="945" y1="290" x2="990" y2="355" stroke="#f59e0b" stroke-width="2" opacity="0.7"/>
    <line x1="1130" y1="310" x2="1080" y2="352" stroke="#22c55e" stroke-width="2" opacity="0.7"/>
    <line x1="1130" y1="310" x2="1150" y2="352" stroke="#22c55e" stroke-width="2" opacity="0.7"/>
  </g>

  <!-- ===== BRIDGE CONNECTIONS ===== -->
  <g id="bridge-connections">
    <!-- Bridge line 1: Wolfram node to Lean theorem -->
    <path d="M 362,180 C 500,150 650,100 940,110"
          stroke="url(#bridge-grad)" stroke-width="4" fill="none"
          stroke-dasharray="10,5" class="bridge-line" filter="url(#bridge-glow)" opacity="0.9"/>

    <!-- Bridge line 2: Wolfram hyperedge to Lean app -->
    <path d="M 320,220 C 480,200 680,180 860,187"
          stroke="url(#bridge-grad)" stroke-width="3" fill="none"
          stroke-dasharray="8,4" class="bridge-line" filter="url(#bridge-glow)" opacity="0.8"/>

    <!-- Bridge line 3: Bottom connection -->
    <path d="M 280,300 C 450,320 700,340 830,370"
          stroke="url(#bridge-grad)" stroke-width="3" fill="none"
          stroke-dasharray="8,4" class="bridge-line" filter="url(#bridge-glow)" opacity="0.8"/>

    <!-- Bridge line 4: Middle crossing -->
    <path d="M 200,350 C 400,380 650,320 960,369"
          stroke="url(#bridge-grad)" stroke-width="2" fill="none"
          stroke-dasharray="6,3" class="bridge-line" filter="url(#bridge-glow)" opacity="0.7"/>

    <!-- Connection nodes (bridge endpoints) -->
    <circle cx="362" cy="180" r="8" fill="#10b981" filter="url(#bridge-glow)" class="pulse-node"/>
    <circle cx="320" cy="220" r="7" fill="#10b981" filter="url(#bridge-glow)" class="pulse-node"/>
    <circle cx="280" cy="300" r="7" fill="#10b981" filter="url(#bridge-glow)" class="pulse-node"/>
    <circle cx="200" cy="350" r="6" fill="#10b981" filter="url(#bridge-glow)" class="pulse-node"/>
  </g>

  <!-- Center emblem -->
  <g transform="translate(600,250)">
    <circle cx="0" cy="0" r="45" fill="none" stroke="url(#bridge-grad)" stroke-width="3" filter="url(#bridge-glow)"/>
    <circle cx="0" cy="0" r="35" fill="#0a0a0a" stroke="#10b981" stroke-width="2"/>
    <text x="0" y="-5" fill="#10b981" font-family="monospace" font-size="14" font-weight="bold" text-anchor="middle">↔</text>
    <text x="0" y="12" fill="#9ca3af" font-family="monospace" font-size="8" text-anchor="middle">LOSSLESS</text>
  </g>

  <!-- Verification badge -->
  <g transform="translate(600,420)">
    <rect x="-60" y="-15" width="120" height="30" rx="15" fill="#065f46" stroke="#10b981" stroke-width="2"/>
    <text x="0" y="5" fill="#10b981" font-family="monospace" font-size="11" font-weight="bold" text-anchor="middle">✓ VERIFIED</text>
  </g>
</svg>
